<?xml version="1.0" encoding="iso-8859-1"?>
<!-- Generator: Adobe Illustrator 19.0.0, SVG Export Plug-In . SVG Version: 6.00 Build 0)  -->
<svg version="1.1" id="Capa_1" xmlns="http://www.w3.org/2000/svg" xmlns:xlink="http://www.w3.org/1999/xlink" x="0px" y="0px"
	 viewBox="0 0 512 512" style="enable-background:new 0 0 512 512;" xml:space="preserve">
<g>
	<path style="fill:none;stroke:#000000;stroke-linecap:round;stroke-linejoin:round;" d="M194.207,459.034h123.586"/>
	<g>
		<path style="fill:#35495E;" d="M141.241,0h229.517c19.501,0,35.31,15.809,35.31,35.31V476.69c0,19.501-15.809,35.31-35.31,35.31
			H141.241c-19.501,0-35.31-15.809-35.31-35.31V35.31C105.931,15.809,121.74,0,141.241,0z"/>
		<path style="fill:#90BAE1;" d="M379.586,35.31V476.69c-0.015,4.869-3.958,8.813-8.828,8.828H141.241
			c-4.869-0.015-8.813-3.958-8.828-8.828V35.31c0.015-4.869,3.958-8.813,8.828-8.828h28.954c3.81,0.028,7.181,2.476,8.386,6.091
			l2.737,8.298c2.42,7.21,9.167,12.075,16.772,12.094h115.818c7.605-0.019,14.352-4.884,16.772-12.094l2.737-8.298
			c1.205-3.615,4.576-6.063,8.386-6.091h28.954C375.628,26.497,379.572,30.441,379.586,35.31z"/>
		<path style="fill:#A5A5A4;" d="M300.138,35.31c-2.348,0.023-4.607-0.9-6.267-2.56c-1.66-1.66-2.583-3.919-2.56-6.267
			c0.033-2.337,0.947-4.576,2.56-6.268c3.539-3.267,8.995-3.267,12.534,0c3.414,3.481,3.414,9.054,0,12.534
			C304.712,34.36,302.474,35.275,300.138,35.31z"/>
		<g>
			<path style="fill:#2C3E50;" d="M167.724,57.379h-17.655c-2.438,0-4.414-1.976-4.414-4.414c0-2.438,1.976-4.414,4.414-4.414
				h17.655c2.438,0,4.414,1.976,4.414,4.414C172.138,55.403,170.162,57.379,167.724,57.379z"/>
			<path style="fill:#2C3E50;" d="M361.931,57.379h-17.655c-2.438,0-4.414-1.976-4.414-4.414c0-2.438,1.976-4.414,4.414-4.414
				h17.655c2.438,0,4.414,1.976,4.414,4.414C366.345,55.403,364.369,57.379,361.931,57.379z"/>
		</g>
		<g>
			<path style="fill:#E6E7E8;" d="M216.276,180.966c-8.926,0-16.973-5.377-20.389-13.624c-3.416-8.247-1.528-17.739,4.784-24.051
				c6.312-6.312,15.804-8.2,24.051-4.784c8.247,3.416,13.624,11.463,13.624,20.389C238.332,171.08,228.459,180.953,216.276,180.966
				L216.276,180.966z M216.276,145.655c-7.313,0-13.241,5.928-13.241,13.241s5.928,13.241,13.241,13.241
				c7.313,0,13.241-5.928,13.241-13.241C229.509,151.587,223.586,145.663,216.276,145.655L216.276,145.655z"/>
			<path style="fill:#E6E7E8;" d="M251.672,163.31c-2.447,0.005-4.438-1.967-4.457-4.414c-0.01-1.166,0.445-2.288,1.266-3.117
				c0.821-0.829,1.938-1.296,3.105-1.297h0.086c2.438,0,4.414,1.976,4.414,4.414S254.11,163.31,251.672,163.31L251.672,163.31z"/>
			<path style="fill:#E6E7E8;" d="M251.672,198.621c-2.447,0.005-4.438-1.967-4.457-4.414c-0.01-1.166,0.445-2.288,1.266-3.117
				c0.821-0.829,1.938-1.296,3.105-1.297h0.086c2.438,0,4.414,1.976,4.414,4.414S254.11,198.621,251.672,198.621L251.672,198.621z"
				/>
			<path style="fill:#E6E7E8;" d="M278.069,207.448c-1.171,0.001-2.294-0.464-3.122-1.292c-0.828-0.828-1.293-1.951-1.292-3.122
				v-51.138l-1.293,1.293c-1.728,1.694-4.499,1.68-6.21-0.031c-1.711-1.711-1.725-4.481-0.031-6.21l8.828-8.828
				c1.262-1.262,3.16-1.639,4.809-0.956c1.649,0.683,2.724,2.292,2.725,4.077v61.793c0.001,1.171-0.464,2.294-1.292,3.122
				C280.363,206.984,279.24,207.449,278.069,207.448z"/>
			<path style="fill:#E6E7E8;" d="M313.379,207.448c-1.171,0.001-2.294-0.464-3.122-1.292c-0.828-0.828-1.293-1.951-1.292-3.122
				v-51.138l-1.293,1.293c-1.728,1.694-4.499,1.68-6.21-0.031c-1.711-1.711-1.725-4.481-0.031-6.21l8.828-8.828
				c1.262-1.262,3.16-1.639,4.809-0.956c1.649,0.683,2.724,2.292,2.725,4.077v61.793c0.001,1.171-0.464,2.294-1.292,3.122
				C315.673,206.984,314.55,207.449,313.379,207.448z"/>
			<path style="fill:#E6E7E8;" d="M207.448,207.448c-1.637,0.002-3.141-0.903-3.905-2.35c-0.765-1.447-0.665-3.199,0.259-4.551
				l22.328-32.715c1.374-2.014,4.12-2.533,6.134-1.159c2.014,1.374,2.533,4.12,1.159,6.134l-22.328,32.715
				C210.274,206.729,208.908,207.45,207.448,207.448L207.448,207.448z"/>
			<path style="fill:#E6E7E8;" d="M326.621,247.172H185.379c-4.875,0-8.828-3.952-8.828-8.828c0-4.875,3.952-8.828,8.828-8.828
				h141.241c4.875,0,8.828,3.952,8.828,8.828C335.448,243.22,331.496,247.172,326.621,247.172z"/>
		</g>
		<circle style="fill:#B0D3F0;" cx="326.621" cy="406.069" r="26.483"/>
		<path style="fill:#E6E7E8;" d="M335.448,410.483h-17.655c-2.438,0-4.414-1.976-4.414-4.414c0-2.438,1.976-4.414,4.414-4.414
			h17.655c2.438,0,4.414,1.976,4.414,4.414C339.862,408.507,337.886,410.483,335.448,410.483z"/>
		<circle style="fill:#B0D3F0;" cx="185.379" cy="406.069" r="26.483"/>
		<g>
			<path style="fill:#E6E7E8;" d="M185.379,419.31c-1.171,0.001-2.294-0.464-3.122-1.292c-0.828-0.828-1.293-1.951-1.292-3.122
				v-17.655c0-2.438,1.976-4.414,4.414-4.414s4.414,1.976,4.414,4.414v17.655c0.001,1.171-0.464,2.294-1.292,3.122
				C187.673,418.846,186.55,419.311,185.379,419.31z"/>
			<rect x="238.345" y="88.276" style="fill:#E6E7E8;" width="35.31" height="26.483"/>
			<path style="fill:#E6E7E8;" d="M295.724,92.69c-1.171,0.001-2.294-0.464-3.122-1.292c-0.828-0.828-1.293-1.951-1.292-3.122
				v-4.414c0-4.875-3.952-8.828-8.828-8.828s-8.828,3.952-8.828,8.828v4.414c0,2.438-1.976,4.414-4.414,4.414
				c-2.438,0-4.414-1.976-4.414-4.414v-4.414c0-9.751,7.904-17.655,17.655-17.655s17.655,7.904,17.655,17.655v4.414
				c0.001,1.171-0.464,2.294-1.292,3.122C298.018,92.226,296.895,92.69,295.724,92.69z"/>
		</g>
	</g>
</g>
<g>
</g>
<g>
</g>
<g>
</g>
<g>
</g>
<g>
</g>
<g>
</g>
<g>
</g>
<g>
</g>
<g>
</g>
<g>
</g>
<g>
</g>
<g>
</g>
<g>
</g>
<g>
</g>
<g>
</g>
</svg>
